# xmcd
#
# Track frame offsets: 
#        150
#        20601
#        34798
#        48612
#        63044
#        73143
#        90829
#        108374
#        124556
#        144450
#        160058
#        178540
#
# Disc length: 2597 seconds
#
# Revision: 0
# Processed by: cddbd v1.5.2PL0 Copyright (c) Steve Scherf et al.
# Submitted via: ExactAudioCopy v0.99pb5
#
DISCID=970a230c
DTITLE=Various Artist - Juice CD (Volumen 105)
DYEAR=2010
DGENRE=Hip-Hop
TTITLE0=Farid Bang - Ich bin Jean-Claude Van Damme (prod. by Juh-Dee)
TTITLE1=Manuellsen - Immer noch (feat. Kee-Rush)(prod. by Joshimixu)
TTITLE2=Kaisa - Madagaskar (prod. by Undercover Molotov)
TTITLE3=Creme Fresh - Was wir wollen (prod. by Bustla and Fabian Dellefa
TTITLE3=nt)
TTITLE4=Audio88 and Yassin - Gott trinkt (Whizz Vienna Remix)(prod. by W
TTITLE4=izz Vienna)
TTITLE5=Dexter - The Subject Is Jazz (feat. Demograffics)(prod. by Dex
TTITLE5=ter)
TTITLE6=The Doppelangaz - The Props (prod. by The Doppelgangaz)
TTITLE7=Stalley - Babblin' (prod. by J. Rawls)
TTITLE8=Marco Polo and Ruste Juxx - Nobody (prod. by Marco Polo)
TTITLE9=Grafh - So Easy (feat. Cassidy)(prod. by Mr. Probz)
TTITLE10=Freeway and Jake One - Follow My Moves (feat. Birdman)(prod. by
TTITLE10=Jake One)
TTITLE11=Crookers - Embrace The Martian (feat. Kid Cudi)(prod. by Croo
TTITLE11=kers)
EXTD=
EXTT0=
EXTT1=
EXTT2=
EXTT3=
EXTT4=
EXTT5=
EXTT6=
EXTT7=
EXTT8=
EXTT9=
EXTT10=
EXTT11=
PLAYORDER=
